<?xml version="1.0" encoding="UTF-8"?>
<svg width="447px" height="222px" viewBox="0 0 447 222" version="1.1" xmlns="http://www.w3.org/2000/svg" xmlns:xlink="http://www.w3.org/1999/xlink">
    <title>logo</title>
    <g id="Page-2" stroke="none" stroke-width="1" fill="none" fill-rule="evenodd">
        <g id="Artboard" transform="translate(-282, -290)" fill="#FFFFFF" fill-rule="nonzero">
            <g id="logo" transform="translate(282, 290)">
                <path d="M28.9801314,63.8118607 C28.8672826,34.1215232 47.9838659,17.6555559 83.0798365,17.5321733 C108.335393,17.4424405 112.849345,33.8635414 112.849345,39.8307721 C112.849345,51.2604865 96.5765506,63.38563 96.5765506,63.38563 C96.5765506,63.38563 97.4793408,70.5081703 111.45002,70.4520874 C125.420699,70.3960044 139.030262,61.232043 138.95161,38.294098 C138.883558,11.946307 111.111473,-0.100320359 83.6553653,0 C60.6906386,0.0791452245 -0.213848007,3.28709254 -1.42108547e-14,63.38563 C0.203692479,116.765425 101.564467,121.476396 101.643461,155.653373 C101.778879,192.769099 59.8894122,202.763089 45.7156055,202.763089 C31.5417987,202.763089 25.775226,192.791533 25.7526563,187.317832 C25.6510924,157.257347 55.747862,148.889764 55.747862,148.889764 C55.747862,146.646444 53.987421,136.652455 42.3301421,136.697321 C12.3010817,136.753404 0.339111015,162.416983 0.429390039,187.474865 C0.508384185,208.786403 15.6639753,222.089289 38.5497079,222 C82.3124648,221.842524 131.661236,200.620719 131.480678,153.48857 C131.32269,109.407336 29.104265,97.8991051 28.9801314,63.8118607 Z" id="path830"></path>
                <path d="M446.170786,181.911432 C445.820955,181.070187 444.839171,181.272085 443.54141,182.337662 C438.576063,186.409288 427.223476,197.939952 400.658873,198.040901 C352.224177,198.220367 343.816943,118.874145 343.816943,118.874145 C343.816943,118.874145 380.729779,91.4832105 386.496351,80.4348605 C392.262924,69.3865104 373.913712,66.9749417 373.913712,66.9749417 C373.913712,66.9749417 348.093911,98.2019533 329.789839,107.354698 C331.775978,93.7713967 345.317831,62.8135834 346.096488,45.0128408 C346.875145,27.2120982 324.531086,31.552922 320.965065,33.2578451 C320.965065,41.0309482 301.227813,111.594572 294.039346,150.381572 C289.807517,157.111531 283.758822,164.806118 278.342081,164.817335 C275.204884,164.817335 274.053827,159.040786 274.019972,150.762936 C274.019972,139.277139 280.384643,120.8707 280.339504,109.687751 C280.339504,101.948297 276.762198,101.488417 273.681426,101.499633 C273.015618,101.499633 269.314178,101.600583 268.637085,101.600583 C260.737671,101.600583 263.333193,94.8706234 256.22372,94.937923 C234.466475,95.0164392 206.750815,118.62738 205.543333,154.262515 C198.196877,159.096869 187.916353,165.187483 182.668885,165.209916 C177.161864,165.209916 175.796394,160.15123 175.785109,155.776756 C175.785109,148.093386 188.288754,102.441828 188.288754,102.441828 C188.288754,102.441828 204.211717,98.3814189 211.163202,97.0466436 C216.421955,96.0259331 217.934129,95.6445687 219.976692,93.1208339 C222.019254,90.5970992 226.014101,85.3813806 229.241576,80.6928422 C232.469051,76.0043039 229.298001,72.3813424 223.3283,72.4037756 C215.496595,72.4037756 194.540577,77.3390791 194.540577,77.3390791 C194.540577,77.3390791 204.606688,34.2000394 204.595403,33.3251447 C204.584118,32.4502499 203.466915,31.9903694 201.762898,32.001586 C197.94861,32.001586 191.143828,34.043007 186.787865,35.5908977 C180.118502,37.9576 174.690476,46.0784177 173.595843,49.8584116 C172.50121,53.6384054 164.962911,83.2390102 164.962911,83.2390102 C164.962911,83.2390102 124.596903,97.09151 119.078597,99.1665808 C118.741066,99.2816057 118.514353,99.5970826 118.514353,99.9517427 C118.514353,100.310674 123.129869,117.898301 132.597881,117.831002 C139.368808,117.831002 159.264048,109.732617 159.264048,109.732617 C159.264048,109.732617 149.039948,150.112373 149.107658,163.572292 C149.107658,172.209073 153.204068,182.326446 170.176525,182.270363 C185.975354,182.270363 199.79933,174.160762 207.540756,168.518812 C211.772585,179.163365 221.770987,182.079681 228.598338,182.057247 C243.900633,182.057247 255.682046,169.920887 257.194219,168.29448 C259.180358,172.960586 263.863582,181.922648 274.561646,181.888998 C280.610341,181.888998 286.873448,175.159039 291.488963,168.630978 C291.401571,169.987589 291.420436,171.3489 291.545388,172.702604 C293.396108,189.43777 318.392113,179.600812 319.757583,177.26776 C320.603949,165.165049 320.073559,140.421232 324.937342,125.144224 C331.392292,177.256543 355.880477,212.308415 399.902786,212.151908 C424.515105,212.06165 437.142884,205.028842 442.367782,199.22986 C446.636395,194.536245 448.083553,187.946058 446.170786,181.911432 Z M234.951725,164.727687 C213.815148,164.806118 241.41796,110.34953 259.451195,110.28223 C259.473765,117.303821 259.078794,164.649086 234.951725,164.727687 Z" id="path832"></path>
                <path d="M406.54958,181.418266 C425.632308,181.350602 440.404214,168.866527 443.112584,164.806118 C446.610896,159.5231 439.050028,151.548098 436.646349,151.682697 C430.620224,157.414379 424.323262,164.346238 410.18331,164.391104 C393.538115,164.458404 397.307264,146.253863 397.307264,146.253863 C397.307264,146.253863 429.345033,150.370355 442.221079,127.477277 C446.340059,120.152838 446.509333,110.024249 444.850455,105.660992 C443.191578,101.297735 433.870269,93.2217833 419.041939,94.4443926 C400.828146,95.9698501 377.874705,114.847386 372.830364,137.516133 C368.779093,155.754323 376.441525,181.530067 406.54958,181.418266 L406.54958,181.418266 Z M426.86236,105.032862 C429.864137,104.931913 429.5933,109.844783 428.792074,114.981985 C427.663586,121.947493 418.037585,139.658503 399.665804,138.963074 C400.940995,128.65502 414.606982,105.43666 426.896215,105.032862 L426.86236,105.032862 Z" id="path834"></path>
            </g>
        </g>
    </g>
</svg>